<svg width="106" height="28" viewBox="0 0 106 28" fill="none" xmlns="http://www.w3.org/2000/svg">
<path d="M43.1164 7.2832C45.7069 7.2832 47.6836 7.87773 49.0461 9.06738C50.4085 10.2379 51.09 12.0416 51.09 14.4785V23.1436H45.9953V21.1279C45.2086 22.6439 43.6733 23.4023 41.3898 23.4023C40.1809 23.4023 39.1349 23.1907 38.2522 22.7686C37.3695 22.3464 36.698 21.7803 36.2375 21.0703C35.7962 20.3411 35.5754 19.5158 35.5754 18.5947C35.5755 17.1173 36.1415 15.9758 37.2736 15.1699C38.4058 14.3448 40.1518 13.9317 42.5119 13.9316H45.6213C45.5252 12.2816 44.4215 11.457 42.3107 11.457C41.5624 11.457 40.8039 11.5816 40.0363 11.8311C39.269 12.0613 38.6165 12.3875 38.0793 12.8096L36.2375 9.09668C37.101 8.52099 38.147 8.0795 39.3752 7.77246C40.6223 7.44632 41.8693 7.28323 43.1164 7.2832ZM97.7023 7.2832C100.293 7.28325 102.27 7.87766 103.632 9.06738C104.994 10.2379 105.675 12.0417 105.675 14.4785V23.1436H100.58V21.1279C99.7935 22.6439 98.2584 23.4023 95.9748 23.4023C94.7659 23.4023 93.7198 23.1907 92.8371 22.7686C91.9546 22.3464 91.2829 21.7802 90.8225 21.0703C90.3812 20.3412 90.1604 19.5157 90.1604 18.5947C90.1605 17.1174 90.7266 15.9758 91.8586 15.1699C92.9908 14.3448 94.7375 13.9316 97.0979 13.9316H100.206C100.11 12.2816 99.0064 11.457 96.8957 11.457C96.1474 11.4571 95.3897 11.5816 94.6223 11.8311C93.8547 12.0613 93.2016 12.3874 92.6643 12.8096L90.8225 9.09668C91.686 8.52099 92.732 8.0795 93.9602 7.77246C95.2075 7.44624 96.455 7.2832 97.7023 7.2832ZM59.1477 23.1436H53.6789V7.54199H59.1477V23.1436ZM82.1604 7.2832C84.0793 7.2832 85.6053 7.85838 86.7375 9.00977C87.8888 10.1611 88.464 11.8979 88.4641 14.2197V23.1436H82.9953V15.1123C82.9953 14.0187 82.7845 13.2125 82.3625 12.6943C81.9595 12.1762 81.3834 11.917 80.635 11.917C79.8099 11.917 79.1476 12.2047 78.6486 12.7803C78.1497 13.356 77.9006 14.2298 77.9006 15.4004V23.1436H72.4309V15.1123C72.4309 12.9822 71.6441 11.917 70.0705 11.917C69.2264 11.9171 68.5547 12.2048 68.0559 12.7803C67.5569 13.356 67.3078 14.2298 67.3078 15.4004V23.1436H61.8381V7.54199H67.049V9.18262C67.6246 8.54955 68.3055 8.07947 69.092 7.77246C69.898 7.44623 70.7718 7.2832 71.7121 7.2832C72.8058 7.28326 73.7842 7.48476 74.6477 7.8877C75.5112 8.29068 76.2119 8.90437 76.7492 9.72949C77.3632 8.94282 78.1401 8.33817 79.0803 7.91602C80.0205 7.49386 81.0474 7.28323 82.1604 7.2832ZM43.2609 16.7812C41.6682 16.7812 40.8713 17.3098 40.8713 18.3652C40.8714 18.8448 41.0537 19.2288 41.4182 19.5166C41.7828 19.8044 42.282 19.9482 42.9152 19.9482C43.5485 19.9482 44.1054 19.7943 44.5852 19.4873C45.0647 19.1803 45.4103 18.7295 45.6213 18.1348V16.7812H43.2609ZM97.8459 16.7812C96.2532 16.7813 95.4572 17.3098 95.4572 18.3652C95.4573 18.8448 95.6396 19.2288 96.0041 19.5166C96.3686 19.8042 96.8673 19.9482 97.5002 19.9482C98.1335 19.9482 98.6904 19.7943 99.1701 19.4873C99.6498 19.1803 99.9952 18.7295 100.206 18.1348V16.7812H97.8459ZM56.4133 0C57.4112 1.54439e-06 58.2172 0.269327 58.8313 0.806641C59.4452 1.32474 59.7522 1.99624 59.7522 2.82129C59.7521 3.68476 59.4453 4.40481 58.8313 4.98047C58.2172 5.53685 57.411 5.81445 56.4133 5.81445C55.4155 5.81445 54.6094 5.53684 53.9953 4.98047C53.3812 4.42396 53.0744 3.73239 53.0744 2.90723C53.0745 2.08218 53.3813 1.3914 53.9953 0.834961C54.6094 0.278456 55.4154 0 56.4133 0Z" fill="black"/>
<path d="M22.9434 2.65723C26.9177 2.65723 30.1396 5.87917 30.1396 9.85352V20.4375C30.1396 21.1285 29.6525 21.7047 29.0029 21.8438L23.0283 27.1553V21.877H7.19629C3.22197 21.877 4.19116e-05 18.655 0 14.6807V9.85352C0 5.87917 3.22195 2.65723 7.19629 2.65723H22.9434Z" fill="#1681FF"/>
<circle cx="9.82835" cy="12.0484" r="2.40244" fill="white"/>
<circle cx="19.8748" cy="12.0484" r="2.40244" fill="white"/>
</svg>
