<svg width="234" height="214" viewBox="0 0 234 214" fill="none" xmlns="http://www.w3.org/2000/svg">
<path fill-rule="evenodd" clip-rule="evenodd" d="M223.431 58.0757C221.192 58.8315 218.772 58.9736 216.451 58.4854C214.131 57.9973 212.005 56.8989 210.321 55.3181L201.08 46.604L130.813 112.74C129.647 113.838 128.262 114.709 126.738 115.304C125.214 115.898 123.581 116.204 121.931 116.204C120.281 116.204 118.648 115.898 117.124 115.304C115.6 114.709 114.215 113.838 113.049 112.74L86.2448 87.5114L22.39 147.612C21.2311 148.74 19.8451 149.64 18.3129 150.259C16.7806 150.877 15.1327 151.203 13.4655 151.216C11.7982 151.228 10.1449 150.929 8.60205 150.334C7.05919 149.739 5.65766 148.861 4.47924 147.751C3.30082 146.64 2.36911 145.32 1.73848 143.868C1.10785 142.415 0.790922 140.859 0.806191 139.289C0.821459 137.72 1.16862 136.169 1.82741 134.728C2.48621 133.286 3.44344 131.983 4.64327 130.893L77.338 62.4249C78.5041 61.3266 79.8887 60.4554 81.4126 59.861C82.9366 59.2666 84.5701 58.9607 86.2197 58.9607C87.8694 58.9607 89.5028 59.2666 91.0268 59.861C92.5508 60.4554 93.9354 61.3266 95.1015 62.4249L121.923 87.669L183.316 29.8848L174.075 21.1865C172.392 19.6045 171.221 17.6051 170.698 15.4211C170.175 13.2371 170.323 10.9583 171.123 8.84999C171.922 6.74168 173.342 4.89055 175.216 3.51209C177.09 2.13363 179.342 1.28454 181.709 1.06366C196.995 -0.354552 205.784 -0.354552 220.501 1.06366C223.373 1.34316 226.055 2.54571 228.095 4.46876C230.135 6.39181 231.409 8.91786 231.701 11.6214C233.225 25.4569 233.208 33.7455 231.701 48.1167C231.466 50.3434 230.563 52.4614 229.099 54.2244C227.635 55.9874 225.669 57.3229 223.431 58.0757ZM196.258 81.8386C198.155 80.1072 200.584 78.9832 203.199 78.6267C205.815 78.2702 208.483 78.6994 210.824 79.8531L227.097 87.8896C229.203 88.9327 230.95 90.5173 232.136 92.4591C233.321 94.4008 233.896 96.6196 233.794 98.8571L229.173 202.67C229.039 205.719 227.657 208.601 225.317 210.713C222.976 212.825 219.859 214.003 216.616 214H183.601C182.491 214 181.426 213.585 180.641 212.846C179.856 212.107 179.415 211.105 179.415 210.061V98.8729C179.414 98.3439 179.526 97.8201 179.745 97.3328C179.964 96.8455 180.284 96.4046 180.688 96.0364L196.258 81.8386ZM158.488 210.061C158.488 211.105 158.047 212.107 157.262 212.846C156.477 213.585 155.412 214 154.302 214H91.5186C90.4086 214 89.3439 213.585 88.559 212.846C87.7741 212.107 87.3331 211.105 87.3331 210.061V118.444C87.3331 118.129 87.5842 117.877 87.9191 117.908C90.648 118.034 93.3268 119.011 95.5368 120.824L123.078 143.578C123.867 144.232 124.89 144.582 125.942 144.559C126.993 144.536 127.997 144.14 128.753 143.452L151.389 122.778C151.98 122.238 152.726 121.875 153.535 121.733C154.344 121.592 155.18 121.677 155.938 121.98C156.695 122.283 157.341 122.789 157.795 123.435C158.248 124.082 158.489 124.839 158.488 125.614V210.061ZM59.2229 139.733L7.1546 189.78C4.85016 191.988 3.55774 194.958 3.55502 198.053V202.182C3.55502 208.705 9.18041 214 16.1117 214H62.2198C63.3298 214 64.3944 213.585 65.1794 212.846C65.9643 212.107 66.4053 211.105 66.4053 210.061V142.491C66.4069 141.707 66.1599 140.94 65.6959 140.289C65.2319 139.638 64.572 139.132 63.8007 138.836C63.0294 138.539 62.1817 138.467 61.3662 138.627C60.5507 138.786 59.8044 139.172 59.2229 139.733Z" fill="white" fill-opacity="0.3"/>
</svg>
