<svg width="235" height="241" viewBox="0 0 235 241" fill="none" xmlns="http://www.w3.org/2000/svg">
<path d="M124.634 234.857L124.506 234.88L123.676 235.266L123.442 235.31L123.278 235.266L122.448 234.88C122.323 234.843 122.23 234.861 122.168 234.935L122.121 235.045L121.922 239.774L121.981 239.995L122.098 240.138L123.313 240.956L123.489 241L123.629 240.956L124.845 240.138L124.985 239.962L125.032 239.774L124.833 235.056C124.802 234.938 124.735 234.872 124.634 234.857ZM127.732 233.609L127.58 233.631L125.417 234.659L125.3 234.769L125.265 234.891L125.476 239.641L125.534 239.774L125.628 239.851L127.977 240.879C128.126 240.915 128.239 240.886 128.316 240.79L128.363 240.636L127.966 233.852C127.927 233.719 127.849 233.638 127.732 233.609ZM119.374 233.631C119.322 233.602 119.261 233.592 119.202 233.604C119.143 233.617 119.092 233.65 119.058 233.697L118.988 233.852L118.591 240.636C118.598 240.768 118.665 240.856 118.789 240.901L118.965 240.879L121.314 239.851L121.431 239.763L121.478 239.641L121.677 234.891L121.642 234.758L121.525 234.648L119.374 233.631Z" fill="white" fill-opacity="0.3"/>
<path d="M117.703 0C128.177 0 138.324 1.30366 147.98 3.74526L123.127 27.2222C121.242 29.0112 119.579 30.998 118.171 33.1439H117.703C101.519 33.1439 85.6983 37.6795 72.2418 46.1773C58.7852 54.675 48.2971 66.7532 42.1037 80.8844C35.9103 95.0157 34.2898 110.565 37.4472 125.567C40.6045 140.569 48.3979 154.349 59.8418 165.164C71.2857 175.98 85.8661 183.345 101.739 186.329C117.612 189.313 134.065 187.782 149.017 181.928C163.97 176.075 176.749 166.163 185.741 153.445C194.732 140.727 199.531 125.775 199.531 110.48V110.038C201.791 108.712 203.876 107.147 205.785 105.342L230.638 81.8653C233.221 90.9909 234.6 100.581 234.6 110.48C234.6 171.497 182.266 220.959 117.703 220.959C53.1406 220.959 0.805664 171.497 0.805664 110.48C0.805664 49.4617 53.1406 0 117.703 0ZM112.864 55.4276C112.864 64.8294 112.373 74.3638 112.91 83.7545L106.598 89.7204C104.426 91.7726 102.704 94.209 101.529 96.8903C100.354 99.5716 99.7487 102.445 99.7487 105.348C99.7487 108.25 100.354 111.124 101.529 113.805C102.704 116.487 104.426 118.923 106.598 120.975C108.769 123.027 111.347 124.655 114.184 125.766C117.021 126.876 120.062 127.448 123.133 127.448C126.204 127.448 129.245 126.876 132.082 125.766C134.919 124.655 137.497 123.027 139.668 120.975L145.981 115.009C155.917 115.517 165.993 115.053 175.953 115.053C175.03 125.553 170.949 135.583 164.191 143.963C157.434 152.342 148.282 158.72 137.815 162.345C127.348 165.97 116.002 166.69 105.116 164.421C94.2305 162.152 84.2583 156.988 76.3757 149.538C68.4932 142.088 63.0293 132.663 60.6283 122.375C58.2273 112.087 58.9895 101.364 62.8249 91.4719C66.6602 81.5796 73.4089 72.9302 82.2748 66.5437C91.1408 60.1573 101.754 56.3003 112.864 55.4276ZM193.733 1.40309C195.867 2.23919 197.691 3.65397 198.974 5.46884C200.258 7.28371 200.944 9.41732 200.946 11.6003V31.8181H222.326C224.638 31.8186 226.898 32.4668 228.819 33.6808C230.741 34.8948 232.239 36.62 233.124 38.6385C234.008 40.657 234.24 42.878 233.789 45.0208C233.338 47.1635 232.225 49.1319 230.591 50.677L189.244 89.7094C187.053 91.7814 184.08 92.9458 180.98 92.9464H152.772L131.403 113.153C129.21 115.226 126.235 116.391 123.133 116.391C120.031 116.391 117.056 115.226 114.862 113.153C112.669 111.08 111.437 108.268 111.437 105.337C111.437 102.405 112.669 99.5933 114.862 97.5203L136.243 77.3357V50.6659C136.242 49.2133 136.544 47.7748 137.131 46.4326C137.719 45.0904 138.581 43.8709 139.668 42.844L180.991 3.78945C182.626 2.24348 184.709 1.19051 186.977 0.76376C189.245 0.337011 191.597 0.555658 193.733 1.39204" fill="white" fill-opacity="0.3"/>
</svg>
